<?xml version="1.0" encoding="utf-8"?>
<!-- Generator: Adobe Illustrator 18.1.1, SVG Export Plug-In . SVG Version: 6.00 Build 0)  -->
<svg version="1.1" id="Layer_1" xmlns="http://www.w3.org/2000/svg" xmlns:xlink="http://www.w3.org/1999/xlink" x="0px" y="0px"
	 viewBox="0 0 288 115.2" enable-background="new 0 0 288 115.2" xml:space="preserve">
<g>
	<path fill="#EA5B3B" d="M35,74.6c-16.5-11-2.8-24.8-2.8-24.8l1-0.5c-0.4-0.1-0.8-0.1-1.3-0.1c-5.9,0-10.7,5.9-10.7,13.2
		S26,75.7,32,75.7c1.4,0,2.7-0.3,3.9-0.9L35,74.6z"/>
	<path fill="#EA5B3B" d="M160.7,59.6c0,7.8-1.1,15.2-3.2,21.3c-3,8.6-7.6,13.7-13.1,14.4c-0.4,0-0.8,0.1-1.2,0.1
		C132,95.3,120.9,77,118,53.6c-1.5-12-0.6-23.5,2.5-32.4c3-8.6,7.6-13.7,13.1-14.4c0.4,0,0.8-0.1,1.2-0.1c7,0,14,7.1,19,18.2h3
		c-5.4-12.8-13.5-21-22-21c-0.5,0-1,0-1.5,0.1c-2.7,0.3-5.2,1.5-7.4,3.5L34.4,49.9c0,0-13.8,13.8,2.8,24.8l97.5,20.6
		c2.8,1.8,5.7,2.8,8.6,2.8c0.5,0,1,0,1.5-0.1c6.5-0.8,12-6.6,15.3-16.2c2.2-6.4,3.4-14,3.4-22.2H160.7z M33.9,56.5l82.6-31.2
		c-1.1,4.6-1.7,9.6-1.9,14.8L33.9,56.5z"/>
</g>
<g>
	<path d="M142.3,29h4l9.5,21.8h-5.4l-1.9-4.6H140l-1.8,4.6h-5.3L142.3,29z M144.1,35.4l-2.6,6.8h5.3L144.1,35.4z"/>
	<path d="M170.3,34.7c-0.5-0.6-1.1-1-1.7-1.3c-0.7-0.3-1.5-0.5-2.4-0.5s-1.7,0.2-2.5,0.5c-0.8,0.3-1.4,0.8-2,1.5
		c-0.6,0.6-1,1.4-1.3,2.2s-0.5,1.8-0.5,2.8c0,1,0.2,2,0.5,2.8s0.8,1.6,1.3,2.2c0.6,0.6,1.2,1.1,2,1.5c0.7,0.3,1.6,0.5,2.4,0.5
		c1,0,1.9-0.2,2.6-0.6c0.8-0.4,1.4-1,1.9-1.7l4,3c-0.9,1.3-2.1,2.2-3.5,2.9s-2.9,0.9-4.4,0.9c-1.7,0-3.3-0.3-4.7-0.8
		s-2.7-1.3-3.7-2.3c-1-1-1.9-2.2-2.4-3.6c-0.6-1.4-0.9-3-0.9-4.7c0-1.7,0.3-3.3,0.9-4.7c0.6-1.4,1.4-2.6,2.4-3.6
		c1-1,2.3-1.8,3.7-2.3c1.4-0.5,3-0.8,4.7-0.8c0.6,0,1.3,0.1,1.9,0.2c0.7,0.1,1.3,0.3,2,0.5c0.6,0.2,1.3,0.6,1.9,1
		c0.6,0.4,1.1,0.9,1.6,1.5L170.3,34.7z"/>
	<path d="M181.4,33.3h-6.2V29h17.2v4.3h-6.2v17.6h-4.8V33.3z"/>
	<path d="M194.2,29h4.8v21.8h-4.8V29z"/>
	<path d="M202.8,40c0-1.7,0.3-3.3,0.9-4.7c0.6-1.4,1.4-2.6,2.4-3.6c1-1,2.3-1.8,3.7-2.3c1.4-0.5,3-0.8,4.7-0.8
		c1.7,0,3.3,0.3,4.7,0.8c1.4,0.5,2.7,1.3,3.7,2.3c1,1,1.9,2.2,2.4,3.6c0.6,1.4,0.9,3,0.9,4.7c0,1.7-0.3,3.3-0.9,4.7
		c-0.6,1.4-1.4,2.6-2.4,3.6c-1,1-2.3,1.8-3.7,2.3s-3,0.8-4.7,0.8c-1.7,0-3.3-0.3-4.7-0.8s-2.7-1.3-3.7-2.3c-1-1-1.9-2.2-2.4-3.6
		C203.1,43.3,202.8,41.7,202.8,40z M207.8,40c0,1,0.2,2,0.5,2.8s0.8,1.6,1.4,2.2s1.3,1.1,2.1,1.5c0.8,0.3,1.8,0.5,2.8,0.5
		c1,0,2-0.2,2.8-0.5c0.8-0.3,1.5-0.8,2.1-1.5c0.6-0.6,1.1-1.4,1.4-2.2s0.5-1.8,0.5-2.8c0-1-0.2-1.9-0.5-2.8s-0.8-1.6-1.4-2.2
		c-0.6-0.6-1.3-1.1-2.1-1.5c-0.8-0.3-1.8-0.5-2.8-0.5c-1,0-2,0.2-2.8,0.5c-0.8,0.3-1.5,0.8-2.1,1.5c-0.6,0.6-1.1,1.4-1.4,2.2
		S207.8,38.9,207.8,40z"/>
	<path d="M229.6,29h6.5l9.3,15.2h0.1V29h4.8v21.8H244l-9.5-15.5h-0.1v15.5h-4.8V29z"/>
</g>
</svg>
