<svg xmlns="http://www.w3.org/2000/svg" xmlns:xlink="http://www.w3.org/1999/xlink" version="1.1" id="hands_up" x="0px" y="0px" viewBox="5.0 -10.0 100.0 135.0" enable-background="new 0 0 100 100" xml:space="preserve" height="100px" width="100px">
<path fill="#000000" d="M91.2,34.2L90.3,36l0,24.2L65.3,74l-2.6,12.4l-30.9-1.5l-2-11.9L6.3,58.7l8-21.9l0,0l-0.2-1.9l-2.3-6.8  l1.3-1.7l2.1,4l0.3-0.2l1.1-7.3l1.8-0.2L18,30.1l0.3-0.1l2.8-8.1l2,0.3l-2.1,8.5l0.2,0.2l4.2-5.4l1.2,1.8l-4.3,6.8l2.5-0.4l2.3,0.6  l0.2,1.3l-0.7,0.8l-6,0.7l-2.3,1.7l0,0l-1.9,16.8l27.8,9.8l9.2,0.2l27.3-10.1l4.5-18.8l0,0l-1.1-3.2l-5.5-2.6l0-0.7l0.7-1.1l2.3,0.2  l2.1,1.3l-1.6-7.9l1.8-1.3l2,6.6l0.3-0.1l1.1-8.7l2,0.4L89,28.1l0.3,0.2l2.3-7l1.6,0.9l-1.6,7.2l0.2,0.3l3.4-3l0.6,2L91.2,34.2z   M48.4,62.7c5.6,0.1,8.7-5.6,8.9-12.1s-2.1-12.1-8.8-12.3c-6-0.2-9.4,4.7-9.5,11.2C38.7,56,43,62.6,48.4,62.7z"/>
<text x="0.0" y="117.5" font-size="5.0" font-weight="bold" font-family="Helvetica Neue, Helvetica, Arial-Unicode, Arial, Sans-serif" fill="#000000">Created by Lorie Shaull</text><text x="0.0" y="122.5" font-size="5.0" font-weight="bold" font-family="Helvetica Neue, Helvetica, Arial-Unicode, Arial, Sans-serif" fill="#000000">from the Noun Project</text></svg>