<?xml version="1.0" encoding="utf-8"?>
<!-- Generator: Adobe Illustrator 18.1.1, SVG Export Plug-In . SVG Version: 6.00 Build 0)  -->
<svg version="1.1" id="Layer_1" xmlns="http://www.w3.org/2000/svg" xmlns:xlink="http://www.w3.org/1999/xlink" x="0px" y="0px"
	 viewBox="0 0 315 115" enable-background="new 0 0 315 115" xml:space="preserve">
<rect fill="#FFFFFF" width="315" height="115"/>
<g>
	<path fill="#EA5B3B" d="M130.6,60.5c1-0.8,1.4-2,1.4-3c0-0.7-0.2-1.4-0.7-1.9l-2.8-3.1c-0.6-0.6-1.4-1-2.3-1
		c-0.9,0-1.9,0.3-2.7,1.1l-14,12.4c-1,0.8-1.4,2-1.4,3c0,0.7,0.2,1.4,0.7,2l2.8,3.1c0.6,0.6,1.4,1,2.3,1c0.9,0,1.9-0.3,2.7-1.1
		L130.6,60.5z"/>
	<path fill="#EA5B3B" d="M158.1,83.9c-0.6-0.6-1.3-0.9-2.3-0.9c-1,0-2.1,0.4-3.1,1.1l-13.7,12.6c-0.7,0.8-1.1,1.9-1.1,2.9
		c0,0.8,0.3,1.6,0.8,2.1l2.8,3.1c0.6,0.6,1.3,0.9,2.2,0.9c0.9,0,1.9-0.4,2.8-1.1l13.8-12.6c1.5-1.4,1.8-2.3,1.8-2.9
		c0-0.3-0.1-0.6-0.3-1c-0.2-0.4-0.5-0.7-0.9-1.1l-1.7-1.9c0,0,0,0,0,0h0l0,0l0.3-0.2l0.8-0.8l-1.1,1L158.1,83.9z"/>
	<path fill="#EA5B3B" d="M150.8,78.4c0-0.7-0.2-1.4-0.7-2l-2.8-3.1c-0.6-0.6-1.4-1-2.3-1c-0.9,0-1.9,0.3-2.7,1.1l-14,12.4
		c-1,0.8-1.4,2-1.4,3c0,0.7,0.2,1.4,0.7,1.9l2.8,3.1c0.6,0.6,1.4,1,2.3,1c0.9,0,1.9-0.3,2.7-1.1l14-12.4
		C150.3,80.5,150.8,79.4,150.8,78.4z"/>
	<path fill="#EA5B3B" d="M131.3,30.9c-0.8,0.6-1.7,1.3-2.6,2c-0.9,0.7-1.7,1.5-2.1,2.1c-0.3,0.4-0.4,0.8-0.4,1.1
		c0,0.2,0,0.4,0.2,0.7c0.4,0.8,0.9,1.1,2,1.3c1.8,0.2,3.6,0.6,5.2,0.8c0.7,0.1,1.4,0.2,1.9,0.2c0.5,0,0.8-0.1,1-0.2l22-18l1.2-1
		l1.2,1.5l2.2,2.3l0,0c0.1,0.1,0.2,0.2,0.3,0.3c8.8,10.2,17.4,20,26.8,30.2l0,0l0,0c0.9,1,1.8,2.3,2.5,3.7c2.7-4.1,3.9-9,4.7-12.9
		c0.5-2.3,0.7-4.6,0.7-6.8c0-14.9-10.4-27.9-24.4-30.4c-1.1-0.2-2.3-0.3-3.5-0.3c-7,0-15.1,3.3-19.9,6.9l0,0l-2.4,2.1
		C142.5,21.6,136.9,26.3,131.3,30.9z"/>
	<path fill="#EA5B3B" d="M138.5,41.2L138.5,41.2c-0.1,0.1-0.2,0.2-0.3,0.2c-0.9,0.6-1.8,0.7-2.6,0.7c0,0,0,0,0,0
		c-0.9,0-1.7-0.2-2.4-0.2c-1.8-0.3-3.5-0.6-5.2-0.8c-1.7-0.2-3.4-1.2-4.2-3c-0.3-0.6-0.5-1.3-0.5-2c0-1,0.4-1.9,0.8-2.7
		c0.5-0.8,1.1-1.4,1.7-2c1.3-1.2,2.7-2.1,3.5-2.8c5.6-4.7,11.3-9.3,16.6-14.2c0.1-0.1,0.1-0.1,0.2-0.2v0l0,0l1.1-1
		c-4.4-3.2-10.2-4.6-14.3-5.4c-2-0.4-4-0.6-6-0.6c-15.3,0-28.4,10.8-30.6,25.1c-0.2,1.1-0.3,2.3-0.3,3.4c0,8.2,4.2,16.9,10,22.7l0,0
		l1.1,1.1l0,0l1.7,1.7l12.6-11.1c1.3-1.2,3-1.8,4.7-1.8c1.7,0,3.3,0.6,4.5,2l2.8,3.1c1,1.1,1.4,2.5,1.4,3.9c0,0.5-0.1,1.1-0.2,1.6
		c0.3,0,0.5-0.1,0.8-0.1c1.7,0,3.3,0.6,4.5,2l2.8,3.1c1,1.1,1.5,2.5,1.4,3.9c0,0.5-0.1,1-0.2,1.5c0.3,0,0.7-0.1,1-0.1
		c1.7,0,3.3,0.6,4.5,2l2.8,3.1c1,1.1,1.5,2.5,1.4,3.9c0,0.7-0.1,1.4-0.3,2.1c0.8-0.3,1.7-0.4,2.5-0.4c1.6,0,3.3,0.6,4.5,1.9l1,1.1
		c0,0,0,0,0,0c1.1,1.1,2.1,1.9,2.9,2.4c0.8,0.5,1.5,0.7,1.9,0.7c0.3,0,0.5-0.1,0.8-0.3l3.1-2.8c0.2-0.2,0.4-0.6,0.4-1.4
		c0-1.6-1-4.4-2.8-7l0-0.1l-0.4-0.8l-17.7-19.7l0,0l-0.3-0.3l0,0l-0.5-0.5h0l2.2-2L169.5,72l0.3,0.3c1.2,1.3,2.4,2.3,3.6,3
		c1.2,0.7,2.3,1,3,1c0.5,0,0.8-0.1,1-0.3l3.1-2.8c0.2-0.2,0.4-0.6,0.4-1.3c0-1.4-0.9-3.7-2.6-5.8c0,0,0,0,0,0
		c-0.1-0.1-0.1-0.1-0.1-0.2c-0.1-0.2-0.3-0.3-0.4-0.5l-19-20.9l2.2-2l19,21c0.2,0.2,0.4,0.4,0.6,0.7l0.1,0.1
		c0.8,0.8,1.6,1.5,2.4,2.1c0.8,0.6,1.6,0.9,2.4,0.9c0.4,0,0.9-0.1,1.4-0.4l0,0l0,0c1-0.5,2.1-1.2,2.8-2c0.7-0.8,1.1-1.7,1.1-2.7
		c0,0,0-0.1,0-0.1c0-0.1,0-0.3,0-0.4c-0.2-1.9-1.3-3.6-2.7-5.1C178.6,46,170,36.3,161.2,26l-1.9-1.9L138.5,41.2z"/>
	<path fill="#EA5B3B" d="M118.8,75.4c-1,0.8-1.4,2-1.4,3c0,0.7,0.2,1.4,0.7,1.9l2.8,3.1c0.6,0.6,1.4,1,2.3,1c0.9,0,1.9-0.3,2.7-1.1
		l14-12.4c1-0.8,1.4-2,1.4-3c0-0.7-0.2-1.4-0.7-1.9l-2.8-3.1c-0.6-0.6-1.4-1-2.3-1c-0.9,0-1.9,0.3-2.7,1.1L118.8,75.4l-0.3-0.3
		c0,0,0,0,0,0L118.8,75.4z"/>
	<polygon fill="#EA5B3B" points="159.2,85.1 159.5,84.9 159.2,85.1 	"/>
	<path fill="#EA5B3B" d="M178.3,65.9C178.2,65.8,178.2,65.8,178.3,65.9l-0.1-0.1c0,0,0,0,0,0C178.2,65.8,178.3,65.9,178.3,65.9
		C178.3,65.9,178.3,65.9,178.3,65.9z"/>
</g>
</svg>
