<?xml version="1.0" encoding="utf-8"?>
<!-- Generator: Adobe Illustrator 18.1.1, SVG Export Plug-In . SVG Version: 6.00 Build 0)  -->
<svg version="1.1" id="Layer_1" xmlns="http://www.w3.org/2000/svg" xmlns:xlink="http://www.w3.org/1999/xlink" x="0px" y="0px"
	 viewBox="0 0 288 115.2" enable-background="new 0 0 288 115.2" xml:space="preserve">
<g>
	<g>
		<path d="M47.6,29h4.8v21.8h-4.8V29z"/>
		<path d="M56.2,29h6.5L72,44.2h0.1V29h4.8v21.8h-6.3l-9.5-15.5H61v15.5h-4.8V29z"/>
		<path d="M91.5,34.4c-0.4-0.5-0.9-0.9-1.6-1.1c-0.7-0.2-1.3-0.4-1.9-0.4c-0.3,0-0.7,0-1.1,0.1c-0.4,0.1-0.7,0.2-1,0.4
			c-0.3,0.2-0.6,0.4-0.8,0.7c-0.2,0.3-0.3,0.6-0.3,1c0,0.7,0.2,1.2,0.7,1.5s1.1,0.6,1.9,0.9c0.7,0.2,1.6,0.5,2.4,0.7s1.7,0.6,2.4,1
			s1.4,1.1,1.9,1.8c0.5,0.8,0.7,1.8,0.7,3c0,1.2-0.2,2.3-0.7,3.2c-0.5,0.9-1.1,1.7-1.8,2.2c-0.8,0.6-1.7,1-2.7,1.3
			c-1,0.3-2.1,0.4-3.2,0.4c-1.4,0-2.7-0.2-3.9-0.6c-1.2-0.4-2.3-1.1-3.4-2.1l3.4-3.8c0.5,0.7,1.1,1.2,1.9,1.5
			c0.7,0.4,1.5,0.5,2.3,0.5c0.4,0,0.8,0,1.2-0.1c0.4-0.1,0.8-0.2,1.1-0.4c0.3-0.2,0.6-0.4,0.8-0.7c0.2-0.3,0.3-0.6,0.3-1
			c0-0.7-0.3-1.2-0.8-1.6c-0.5-0.4-1.1-0.7-1.9-1c-0.8-0.3-1.6-0.5-2.5-0.8c-0.9-0.3-1.7-0.6-2.5-1.1c-0.8-0.5-1.4-1-1.9-1.8
			c-0.5-0.7-0.8-1.7-0.8-2.9c0-1.2,0.2-2.2,0.7-3.1c0.5-0.9,1.1-1.6,1.8-2.2s1.7-1,2.7-1.3c1-0.3,2-0.4,3.1-0.4
			c1.2,0,2.4,0.2,3.6,0.5c1.1,0.3,2.2,0.9,3.1,1.8L91.5,34.4z"/>
		<path d="M97.1,29h8.1c1.1,0,2.2,0.1,3.2,0.3c1,0.2,1.9,0.6,2.6,1.1c0.7,0.5,1.3,1.2,1.8,2c0.4,0.9,0.7,1.9,0.7,3.2
			c0,1.3-0.2,2.3-0.6,3.2c-0.4,0.9-1,1.6-1.7,2.1s-1.6,0.9-2.6,1.1c-1,0.2-2.1,0.3-3.2,0.3h-3.5v8.5h-4.8V29z M101.9,38.3h3.2
			c0.4,0,0.8,0,1.2-0.1s0.8-0.2,1.1-0.4c0.3-0.2,0.6-0.5,0.8-0.8s0.3-0.8,0.3-1.3c0-0.6-0.1-1-0.4-1.3c-0.3-0.3-0.6-0.6-1-0.8
			c-0.4-0.2-0.8-0.3-1.3-0.4c-0.5-0.1-1-0.1-1.4-0.1h-2.5V38.3z"/>
		<path d="M114.6,29h4.8v21.8h-4.8V29z"/>
		<path d="M123.2,29h8.4c1.1,0,2.2,0.1,3.2,0.3c1,0.2,1.9,0.6,2.6,1.1s1.3,1.2,1.8,2c0.4,0.9,0.7,1.9,0.7,3.2c0,1.5-0.4,2.8-1.2,3.9
			s-2,1.8-3.5,2l5.5,9.2h-5.8l-4.6-8.7H128v8.7h-4.8V29z M128,38.1h2.8c0.4,0,0.9,0,1.4,0s0.9-0.1,1.3-0.3c0.4-0.2,0.7-0.4,1-0.7
			c0.3-0.3,0.4-0.8,0.4-1.4c0-0.6-0.1-1-0.3-1.3c-0.2-0.3-0.5-0.6-0.9-0.8c-0.3-0.2-0.7-0.3-1.2-0.4s-0.9-0.1-1.3-0.1H128V38.1z"/>
		<path d="M148.5,29h4l9.5,21.8h-5.4l-1.9-4.6h-8.5l-1.8,4.6h-5.3L148.5,29z M150.3,35.4l-2.6,6.8h5.3L150.3,35.4z"/>
		<path d="M164.7,33.3h-6.2V29h17.2v4.3h-6.2v17.6h-4.8V33.3z"/>
		<path d="M177.4,29h4.8v21.8h-4.8V29z"/>
		<path d="M184.8,40c0-1.7,0.3-3.3,0.9-4.7c0.6-1.4,1.4-2.6,2.4-3.6c1-1,2.3-1.8,3.7-2.3c1.4-0.5,3-0.8,4.7-0.8
			c1.7,0,3.3,0.3,4.7,0.8c1.4,0.5,2.7,1.3,3.7,2.3c1,1,1.9,2.2,2.4,3.6c0.6,1.4,0.9,3,0.9,4.7c0,1.7-0.3,3.3-0.9,4.7
			c-0.6,1.4-1.4,2.6-2.4,3.6c-1,1-2.3,1.8-3.7,2.3c-1.4,0.5-3,0.8-4.7,0.8c-1.7,0-3.3-0.3-4.7-0.8s-2.7-1.3-3.7-2.3
			c-1-1-1.9-2.2-2.4-3.6C185.1,43.3,184.8,41.7,184.8,40z M189.8,40c0,1,0.2,2,0.5,2.8s0.8,1.6,1.4,2.2s1.3,1.1,2.1,1.5
			s1.8,0.5,2.8,0.5c1,0,2-0.2,2.8-0.5s1.5-0.8,2.1-1.5s1.1-1.4,1.4-2.2s0.5-1.8,0.5-2.8c0-1-0.2-1.9-0.5-2.8s-0.8-1.6-1.4-2.2
			c-0.6-0.6-1.3-1.1-2.1-1.5s-1.8-0.5-2.8-0.5c-1,0-2,0.2-2.8,0.5s-1.5,0.8-2.1,1.5c-0.6,0.6-1.1,1.4-1.4,2.2S189.8,38.9,189.8,40z"
			/>
		<path d="M211,29h6.5l9.3,15.2h0.1V29h4.8v21.8h-6.3l-9.5-15.5h-0.1v15.5H211V29z"/>
	</g>
</g>
<g>
	<path fill="#EA5B3B" d="M47.1,73.8c10.5,7,14,9.9,28.2,16.5c7.2,3.3,13.8,8.8,16.4,16H115c-0.2-3.1-0.4-6.4-0.4-9.4
		c1-11.5-2.5-16.4-7-19.2c-8.7-5.5-14.8-9-23.1-15.1c-1.3-1-4.6-4-7.1-4.9c-2.4-1.4-5.3-0.5-6.1,1.3c-0.8,1.8,1,3.8,2.3,4.9
		c4.5,4,8.6,8,13.3,11.9c-2.7-0.6-5.5-1.2-8.2-1.9c-15.9-4.3-33.4-9.5-43.7-25.4c-0.6-1-2.6-2.7-4.3-1.6s-1.2,3.4-0.8,4.6
		C32.5,59.7,39.9,69,47.1,73.8z"/>
	<path fill="#EA5B3B" d="M247.8,46.9c-1.8-1.1-3.7,0.6-4.3,1.6c-10.3,15.9-27.9,21.1-43.7,25.4c-2.7,0.7-5.5,1.3-8.2,1.9
		c4.7-3.9,8.8-7.9,13.3-11.9c1.2-1.1,3.1-3,2.3-4.9c-0.8-1.8-3.7-2.7-6.1-1.3c-2.5,0.9-5.8,3.9-7.1,4.9c-8.3,6.1-14.4,9.6-23.1,15.1
		c-4.5,2.9-8,7.8-7,19.2c0,3-0.2,6.3-0.4,9.4h23.3c2.6-7.2,9.2-12.7,16.4-16c14.2-6.5,17.8-9.5,28.2-16.5c7.2-4.8,14.6-14,17.4-22.3
		C249.1,50.2,249.6,47.9,247.8,46.9z"/>
</g>
</svg>
