<?xml version="1.0" encoding="utf-8"?>
<!-- Generator: Adobe Illustrator 18.1.0, SVG Export Plug-In . SVG Version: 6.00 Build 0)  -->
<svg version="1.1" id="Layer_1" xmlns="http://www.w3.org/2000/svg" xmlns:xlink="http://www.w3.org/1999/xlink" x="0px" y="0px"
	 viewBox="0 34.9 432 74.2" enable-background="new 0 34.9 432 74.2" xml:space="preserve">
<g>
	<path fill="#FFFFFF" d="M17,34.9c-12.6,0-17,8.2-17,25.3v23.1C0,100,4.3,108,15,108c4.7,0,8.7-2.1,11.5-5.9l2.6,5.2h5V71.4H17.8
		v8.9h5.6v8.3c0,7.1-1.7,10.7-6.4,10.7s-6.4-3.5-6.4-10.7V54.6c0-7.1,1.7-10.7,6.4-10.7s6.4,3.5,6.4,10.7v4.6h10.7v-2.6
		C34.1,42.4,28.2,34.9,17,34.9z"/>
	<path fill="#FFFFFF" d="M75.7,57c0-16.1-5.5-20.7-21.6-20.7H42.5v70.9H53V77.4h4.6l8.4,29.8h10.8l-9.4-32
		C73.3,72.1,75.7,66.3,75.7,57z M55.6,68.2H53V45.3h3.4c6.5,0,8.5,3.1,8.5,11.1C65,65.3,62.8,68.2,55.6,68.2z"/>
	<path fill="#FFFFFF" d="M98.8,34.9c-12.6,0-17,8.2-17,25.3v23.1c0,17.1,4.5,25.3,17,25.3s17-8.2,17-25.3V60.2
		C115.9,43.1,111.3,34.9,98.8,34.9z M105.2,88.8c0,7.1-1.8,10.7-6.4,10.7c-4.6,0-6.4-3.5-6.4-10.7V54.6c0-7.1,1.7-10.7,6.4-10.7
		s6.4,3.5,6.4,10.7V88.8z"/>
	<path fill="#FFFFFF" d="M146.9,87.9c0,7.3-1.5,10.8-5.9,10.8s-5.9-3.5-5.9-10.8V36.3h-10.5V85c0,11.4,2.1,18.5,7.7,21.6
		c6.5-0.6,13-1.1,19.6-1.6c3.9-3.6,5.3-10.2,5.3-20V36.3h-10.4L146.9,87.9L146.9,87.9z"/>
	<path fill="#FFFFFF" d="M190.1,41.5c0,16,0.8,32.5,2.6,49.5l-15.9-54.7h-10.1v67.5c3.1-0.3,6.2-0.4,9.4-0.7
		c-0.3-19.1-1.1-37.9-2.7-56.3l15.9,55.4c2.2-0.2,4.3-0.3,6.5-0.4c1.3-0.1,2.5-0.2,3.8-0.3V36.3h-9.4
		C190.1,38,190.1,39.8,190.1,41.5z"/>
	<path fill="#FFFFFF" d="M220.2,36.3H209V101c10.4-0.6,20.7-1.1,31-1.6c1.5-2.9,2.2-6.7,2.2-11.5V56.2
		C242.2,40.6,236.3,36.3,220.2,36.3z M231.5,85.3c0,9-2.2,12.7-9,12.7h-2.9V45.3h3c7,0,9,2.7,9,10.5V85.3z"/>
	<path fill="#FFFFFF" d="M257,87.9c0-0.2,0-0.4,0-0.6l-10,1.5c0.3,4,0.9,7.4,2.2,10.2c3.7-0.2,7.3-0.3,10.9-0.4
		C258,96.9,257,93.4,257,87.9z"/>
	<path fill="#FFFFFF" d="M262.8,62.3c-3.4-4.2-5-8.4-5-11.7c0-4,2.1-6.5,4.7-6.5c3.8,0,5.5,3.1,5.8,9.7l9.5-1.2
		c-0.3-11.4-6-17.7-15.2-17.7c-9,0-14.8,6.4-14.8,17c0,3.7,1.2,7.8,3.6,12.4c2.8,5,7.9,10.1,13.1,17c2.7,3.6,4,6.9,4,10.5
		c0,3.2-0.8,5.4-2.2,6.6c3.8-0.2,7.6-0.3,11.4-0.4c0.6-1.9,0.9-4,0.9-6.3c0-5.4-1.4-10.1-4.2-14.5C271.4,72.6,267.3,67.9,262.8,62.3
		z"/>
	<path fill="#FFFFFF" d="M289.5,36.3h-9.5l8.9,61.2c2-0.1,4-0.1,6-0.2c-0.9-14.2-1.2-22.1-1.4-23.9L289.5,36.3z"/>
	<path fill="#FFFFFF" d="M309.9,36.3h-8.9l-4.1,36.9c-0.8,7.5-1.6,15.5-2.1,24.1c1.8-0.1,3.7-0.1,5.5-0.2l3.1-25.9
		c0.3-2.7,1.1-11.4,2.2-26.2c0.4,9.4,0.9,18.1,2.1,26.1l3.4,25.7c1.9,0,3.8-0.1,5.8-0.1c-1-13.3-1.8-21.3-2.2-24L309.9,36.3z"/>
	<path fill="#FFFFFF" d="M318.4,72.9c-0.5,5-1,13-1.5,24c2.1,0,4.1-0.1,6.2-0.1l8.3-60.5h-9.3L318.4,72.9z"/>
	<path fill="#FFFFFF" d="M345.7,75.1h13.7v-9.7h-13.7V45.8h17.6v-9.5h-28.1v60.3c10.1-0.1,20-0.2,29.7-0.1V90h-19.2V75.1z"/>
	<path fill="#FFFFFF" d="M379.5,36.3H369v60.3c10.1,0.1,20,0.2,29.7,0.3v-7.2h-19.2V36.3z"/>
	<path fill="#FFFFFF" d="M412.5,89.7V36.3H402v60.6c10.1,0.2,20,0.5,29.7,0.9v-8.1H412.5z"/>
</g>
</svg>
