<?xml version="1.0" encoding="utf-8"?>
<!-- Generator: Adobe Illustrator 18.1.1, SVG Export Plug-In . SVG Version: 6.00 Build 0)  -->
<svg version="1.1" id="Layer_1" xmlns="http://www.w3.org/2000/svg" xmlns:xlink="http://www.w3.org/1999/xlink" x="0px" y="0px"
	 viewBox="0 0 288 115.2" enable-background="new 0 0 288 115.2" xml:space="preserve">
<path fill="#EA5B3B" d="M214.5,12.3v90h-200v-90H214.5 M218.5,8.3h-208v98h208V8.3L218.5,8.3z"/>
<g>
	<g>
		<path d="M36.4,33.3h-6.2V29h17.2v4.3h-6.2v17.6h-4.8V33.3z"/>
		<path d="M49.9,29h8.4c1.1,0,2.2,0.1,3.2,0.3c1,0.2,1.9,0.6,2.6,1.1s1.3,1.2,1.8,2c0.4,0.9,0.7,1.9,0.7,3.2c0,1.5-0.4,2.8-1.2,3.9
			s-2,1.8-3.5,2l5.5,9.2h-5.8l-4.6-8.7h-2.4v8.7h-4.8V29z M54.7,38.1h2.8c0.4,0,0.9,0,1.4,0s0.9-0.1,1.3-0.3c0.4-0.2,0.7-0.4,1-0.7
			c0.3-0.3,0.4-0.8,0.4-1.4c0-0.6-0.1-1-0.3-1.3c-0.2-0.3-0.5-0.6-0.9-0.8c-0.3-0.2-0.7-0.3-1.2-0.4s-0.9-0.1-1.3-0.1h-3.1V38.1z"/>
		<path d="M76.4,29h4l9.5,21.8h-5.4l-1.9-4.6h-8.5l-1.8,4.6H67L76.4,29z M78.2,35.4l-2.6,6.8h5.3L78.2,35.4z"/>
		<path d="M91.4,29h4.8v21.8h-4.8V29z"/>
		<path d="M100.5,29h6.5l9.3,15.2h0.1V29h4.8v21.8h-6.3l-9.5-15.5h-0.1v15.5h-4.8V29z"/>
		<path d="M125.6,29h4.8v21.8h-4.8V29z"/>
		<path d="M134.8,29h6.5l9.3,15.2h0.1V29h4.8v21.8h-6.3l-9.5-15.5h-0.1v15.5h-4.8V29z"/>
		<path d="M179,49.3c-1.4,0.7-2.9,1.3-4.4,1.6s-3.1,0.5-4.7,0.5c-1.7,0-3.3-0.3-4.7-0.8c-1.4-0.5-2.7-1.3-3.7-2.3
			c-1-1-1.9-2.2-2.4-3.6c-0.6-1.4-0.9-3-0.9-4.7c0-1.7,0.3-3.3,0.9-4.7c0.6-1.4,1.4-2.6,2.4-3.6c1-1,2.3-1.8,3.7-2.3
			c1.4-0.5,3-0.8,4.7-0.8c1.7,0,3.4,0.2,4.8,0.6c1.5,0.4,2.8,1.1,3.9,2.2l-3.4,3.7c-0.7-0.7-1.4-1.2-2.2-1.5s-1.8-0.5-3.1-0.5
			c-1,0-2,0.2-2.8,0.5s-1.5,0.8-2.1,1.5c-0.6,0.6-1.1,1.4-1.4,2.2c-0.3,0.9-0.5,1.8-0.5,2.8c0,1,0.2,2,0.5,2.8
			c0.3,0.9,0.8,1.6,1.4,2.2s1.3,1.1,2.1,1.5s1.8,0.5,2.8,0.5c1,0,2-0.1,2.7-0.4c0.8-0.2,1.4-0.5,1.8-0.7v-3.5h-3.9v-4.4h8.5V49.3z"
			/>
		<path d="M194,34.4c-0.4-0.5-0.9-0.9-1.6-1.1c-0.7-0.2-1.3-0.4-1.9-0.4c-0.3,0-0.7,0-1.1,0.1c-0.4,0.1-0.7,0.2-1,0.4
			c-0.3,0.2-0.6,0.4-0.8,0.7c-0.2,0.3-0.3,0.6-0.3,1c0,0.7,0.2,1.2,0.7,1.5s1.1,0.6,1.9,0.9c0.7,0.2,1.6,0.5,2.4,0.7s1.7,0.6,2.4,1
			c0.7,0.5,1.4,1.1,1.9,1.8c0.5,0.8,0.7,1.8,0.7,3c0,1.2-0.2,2.3-0.7,3.2c-0.5,0.9-1.1,1.7-1.8,2.2c-0.8,0.6-1.7,1-2.7,1.3
			c-1,0.3-2.1,0.4-3.2,0.4c-1.4,0-2.7-0.2-3.9-0.6c-1.2-0.4-2.3-1.1-3.4-2.1l3.4-3.8c0.5,0.7,1.1,1.2,1.9,1.5
			c0.8,0.4,1.5,0.5,2.3,0.5c0.4,0,0.8,0,1.2-0.1c0.4-0.1,0.8-0.2,1.1-0.4c0.3-0.2,0.6-0.4,0.8-0.7c0.2-0.3,0.3-0.6,0.3-1
			c0-0.7-0.3-1.2-0.8-1.6c-0.5-0.4-1.1-0.7-1.9-1c-0.8-0.3-1.6-0.5-2.5-0.8c-0.9-0.3-1.7-0.6-2.5-1.1c-0.8-0.5-1.4-1-1.9-1.8
			c-0.5-0.7-0.8-1.7-0.8-2.9c0-1.2,0.2-2.2,0.7-3.1c0.5-0.9,1.1-1.6,1.8-2.2c0.8-0.6,1.7-1,2.7-1.3c1-0.3,2-0.4,3.1-0.4
			c1.2,0,2.4,0.2,3.6,0.5c1.1,0.3,2.2,0.9,3.1,1.8L194,34.4z"/>
	</g>
</g>
<path fill="#EA5B3B" d="M272.9,44.5c0,11.8-8.3,21.4-18.6,21.4s-18.6-9.6-18.6-21.4s8.3-21.4,18.6-21.4S272.9,32.7,272.9,44.5z
	 M186.1,81.6c0.2-0.8-0.3-1.6-1.1-1.8l-38.3-8.8c-0.8-0.2-1.6,0.3-1.8,1.1c-0.2,0.8,0.3,1.6,1.1,1.8l38.3,8.8c0.1,0,0.2,0,0.3,0
	C185.4,82.7,186,82.3,186.1,81.6z M226.4,106.3h52.7V81.1c0-7.7-6.3-14-14-14h-24.7c-1.5,0-2.9,0.2-4.3,0.7
	c-0.6,0.1-1.2,0.4-1.8,0.7l-0.5,0.3c-0.1,0.1-0.2,0.1-0.3,0.2l-21.5,12.2l-15.9-3.5c-3.6-0.9-7.3,1.4-8.2,5s1.4,7.3,5,8.2l18.1,4
	c0.8,0.2,1.5,0.2,2.3,0.1c1.1,0,2.3-0.3,3.4-0.9l9.6-5.5V106.3z"/>
</svg>
